<svg xmlns="http://www.w3.org/2000/svg" width="444" height="63" viewBox="0 0 444.7 63.14">
  <path d="M40.52,30h13.25v.91h-.44c-1.83,0-3,3.08-3,4.8v24.86c-4.34,1.66-11.83,2.57-17.42,2.57C10.57,63.14,0,46.86,0,31.6S10.45.18,33.36.18c3.688.085,7.352.623,10.91,1.6,1.18.334,2.384.582,3.6.74h.86v9.83h-.91c-1.54-7.71-9.37-8.91-14.85-8.91C14.35,3.44,6.23,17.78,6.23,30.69c0,14.34,11.31,29.19,28.34,29.19,3.322.055,6.605-.733,9.54-2.29v-21.82c0-1.77-1.09-4.8-3-4.8h-.51l-.08-.97Z" stroke-width="0"/>
  <path d="M120.61,61.31v.91h-13.08v-.91h.46c1.83,0,3-3.26,3-5.08V6.86c0-1.77-1.09-4.8-3-4.8h-.46v-.91h16.11c12.34,0,19.37,4.91,19.37,14.28s-6.57,14-14.45,15.48l6.68,10.17c3.26,4.91,6.57,9.54,9.83,14.63,1.77,2.51,4.17,5.66,7,5.66v.91h-4c-4.91,0-7.88-2.8-10-6-5.54-8.17-11-16.68-16.51-24.79-1.456-.106-2.906-.296-4.34-.57v25.37c0,1.83,1.09,5.08,3,5.08h.46l-.07-.06ZM117.18,4.31v23.54h.46c1,.11,3.14.17,6.4.17,5.08,0,12.57-3,12.57-12.23s-7.43-11.48-18.05-11.48h-1.38Z" stroke-width="0"/>
  <path d="M237.44,61.31h.46c1.49,0,2.23-.63,2.23-2.06-.023-.544-.12-1.083-.29-1.6l-8.34-22.51h-16.17l-8.06,22.11c-.178.436-.276.9-.29,1.37-.145,1.273.769,2.423,2.042,2.568.006,0,.012.001.018.002h.46v.91h-10.28v-.91h.46c1.6,0,3.26-2.23,4.28-4.8L225.15,0l20.74,55.93c.86,2.51,2.34,5.37,4.8,5.37h.46v.91h-13.71v-.91.01ZM216.25,32.06h14.28l-7.14-19.37-7.14,19.37Z" stroke-width="0"/>
  <path d="M323.76,61.31v.91h-13.25v-.91h.46c1.94,0,3.08-3,3.08-4.91V6.86c0-1.77-1-4.8-3.08-4.8h-.46v-.91h37.76v8.57h-.94c0-2.86-1.83-5.37-5.94-5.37h-21.17v23.42h17.6c2.86,0,5-2.06,5-4.34h.91v11.6h-.91c0-2.23-2.06-4.06-5-4.06h-17.6v25.48c0,1.83,1.09,4.91,3,4.91h.51l.03-.05Z" stroke-width="0"/>
  <path d="M420.2,61.31v.91h-13.26v-.91h.46c1.94,0,3.08-3,3.08-4.91V6.86c0-1.77-1-4.8-3.08-4.8h-.46v-.91h37.76v8.57h-.91c0-2.86-1.83-5.37-5.94-5.37h-21.2v23.42h17.6c2.86,0,5-2.06,5-4.34h.91v11.6h-.91c0-2.23-2.06-4.06-5-4.06h-17.6v25.48c0,1.83,1.14,4.91,3.08,4.91h.46l.01-.05Z" stroke-width="0"/>
</svg>