<svg xmlns="http://www.w3.org/2000/svg" width="1120" height="267" viewBox="0 0 1120.002 267.004">
  <path d="M368.76,43.119c-16.21,6.785-34.031,25.955-39.659,50.017-7.128,30.487,22.534,43.38,24.967,39.152,2.863-4.967-5.315-6.647-6.999-22.465-2.176-20.431,7.322-43.26,19.276-53.276,2.222-1.861,2.116.729,2.116,5.52,0,8.568-.473,85.479-.473,101.531,0,21.72-.897,28.579-2.508,35.356-1.632,6.868-4.257,11.509-2.268,13.296,2.222,2,11.709-2.757,17.201-10.422,6.586-9.193,8.891-20.234,9.305-32.223.5-14.453.479-37.387.5-50.469.02-11.998.202-47.13-.21-68.25-.101-5.18-14.468-10.615-21.248-7.774M944.387,144.766c-.523,11.292-3.022,20.118-6.124,26.343-6.005,12.052-18.467,15.794-23.758-1.531-2.883-9.444-3.018-25.216-.945-38.395,2.11-13.425,8.002-23.565,17.759-22.65,9.623.904,14.128,13.304,13.068,36.233h0ZM782.151,214.822c-.131,18.762-3.083,35.212-9.415,39.99-8.981,6.775-21.052,1.693-18.552-11.998,2.212-12.115,12.671-24.487,27.993-39.604,0,0,.032,3.447-.025,11.613h0ZM779.698,144.657c-.549,10.284-3.215,20.616-6.124,26.454-6.004,12.052-18.556,15.82-23.758-1.531-3.557-11.855-2.705-27.197-.945-36.865,2.284-12.543,7.819-24.179,17.759-24.179,9.665,0,14.431,10.603,13.068,36.122h0ZM685.715,144.5c-.589,10.892-2.714,19.997-6.124,26.611-6.169,11.969-18.375,15.765-23.758-1.531-3.881-12.472-2.56-29.477-.945-38.663,2.396-13.632,8.394-23.297,17.759-22.381,9.62.94,14.296,13.303,13.068,35.965h0ZM1116.419,157.222c-2.352,0-3.425,2.424-4.312,6.504-3.079,14.187-6.316,17.39-10.49,17.39-4.663,0-8.853-7.025-9.93-21.087-.846-11.057-.711-31.414.372-51.663.221-4.16-.927-8.277-12.086-12.331-4.802-1.744-11.782-4.311-15.257,4.078-9.819,23.701-13.661,42.517-14.565,50.161-.047.396-.532.476-.617-.448-.576-6.122-1.864-17.247-2.024-40.622-.031-4.561-.997-8.442-6.031-11.62-3.266-2.062-13.184-5.709-16.755-1.37-3.094,3.549-6.677,13.099-10.401,24.419-3.026,9.201-5.134,15.425-5.134,15.425,0,0,.04-24.826.076-34.243.016-3.553-2.421-4.736-3.155-4.951-3.307-.96-9.823-2.563-12.59-2.563-3.413,0-4.248,1.908-4.248,4.687,0,.364-.539,32.686-.539,55.287,0,.982,0,2.053.01,3.191-1.888,10.388-8.009,24.489-14.667,24.489s-9.81-5.895-9.81-32.839c0-15.718.472-22.553.704-33.921.135-6.548.395-11.576.38-12.718-.049-3.499-6.1-5.263-8.916-5.915-2.829-.657-5.287-.912-7.207-.803-2.717.153-4.639,1.936-4.639,4.387,0,1.314.015,3.814.015,3.814-3.499-5.499-9.128-9.326-12.872-10.435-10.086-2.995-20.611-.341-28.549,10.767-6.31,8.826-10.113,18.823-11.61,33.186-1.094,10.5-.737,21.148,1.208,30.153-2.35,10.161-6.713,14.324-11.491,14.324-6.936,0-11.964-11.321-11.38-30.901.385-12.878,2.962-21.916,5.779-34.991,1.201-5.574.225-8.492-2.222-11.288-2.245-2.565-7.028-3.875-13.904-2.263-4.898,1.149-11.9,2.385-18.307,3.334,0,0,.387-1.542.704-4.262,1.666-14.261-13.831-13.104-18.775-8.549-2.951,2.719-4.96,5.927-5.723,11.694-1.209,9.152,6.255,13.468,6.255,13.468-2.449,11.21-8.452,25.854-14.649,36.441-3.319,5.672-5.859,9.876-9.137,14.344-.012-1.664-.021-3.327-.027-4.983-.075-23.568.239-42.116.377-48.801.135-6.548.397-11.443.383-12.584-.037-2.56-1.532-3.526-4.64-4.75-2.749-1.082-5.999-1.832-9.37-2.093-4.255-.332-6.819,1.925-6.752,4.594.013.504.013,3.598.013,3.598-3.499-5.499-9.128-9.326-12.872-10.435-10.086-2.994-20.611-.34-28.549,10.767-6.308,8.826-10.439,21.212-11.61,33.076-1.09,11.058-.889,20.455.597,28.371-1.604,7.927-6.215,16.216-11.428,16.216-6.665,0-10.458-5.895-10.458-32.839,0-15.718.472-22.553.704-33.92.135-6.548.395-11.578.38-12.717-.049-3.499-6.1-5.263-8.916-5.916-2.946-.681-5.49-.932-7.443-.788-2.577.192-4.388,2.5-4.388,4.221v3.966c-3.499-5.499-9.128-9.326-12.872-10.435-10.086-2.994-20.552-.297-28.549,10.767-5.215,7.215-9.437,15.213-11.61,32.919-.628,5.117-.905,9.908-.869,14.387-2.08,12.718-11.264,27.376-18.778,27.376-4.397,0-8.584-8.527-8.584-26.702,0-24.209,1.498-58.677,1.752-61.999,0,0,9.493-.161,11.331-.183,4.735-.052,9.024.06,15.33-.263,3.163-.161,6.211-11.514,2.946-12.919-1.48-.636-11.938-1.193-16.083-1.281-3.486-.079-13.191-.797-13.191-.797,0,0,.871-22.878,1.073-25.295.172-2.014-2.434-3.051-3.929-3.681-3.634-1.537-6.885-2.273-10.739-3.067-5.324-1.098-7.74-.024-8.212,4.47-.711,6.82-1.078,26.796-1.078,26.796-3.907,0-17.254-.764-21.163-.764-3.631,0-7.551,15.617-2.53,15.809,5.776.224,15.842.417,22.516.619,0,0-.297,35.036-.297,45.852,0,1.151.01,2.259.012,3.334-3.673,19.143-16.609,29.484-16.609,29.484,2.778-12.664-2.897-22.174-13.119-30.225-3.766-2.967-11.201-8.583-19.519-14.737,0,0,4.818-4.748,9.09-14.301,3.027-6.767,3.158-14.511-4.273-16.218-12.278-2.823-22.401,6.193-25.421,15.82-2.339,7.457-1.092,12.991,3.491,18.739.335.42.697.849,1.072,1.281-2.771,5.342-6.579,12.534-9.803,18.111-8.95,15.485-15.712,27.733-20.821,27.733-4.085,0-4.03-12.435-4.03-24.078,0-10.037.741-25.127,1.333-40.751.196-5.167-2.388-8.111-6.719-10.777-2.632-1.62-8.248-4.804-11.501-4.804-4.869,0-18.915.662-32.187,39.054-1.673,4.839-4.958,13.656-4.958,13.656l.283-46.167c0-1.082-.576-2.129-1.896-2.845-2.237-1.214-8.21-3.698-13.521-3.698-2.531,0-3.794,1.177-3.794,3.523l-.463,72.229c0,5.488.143,11.89.686,14.691.541,2.804,1.416,5.085,2.501,6.441,1.083,1.354,2.336,2.388,4.402,2.814,1.923.396,12.45,1.748,12.997-2.275.656-4.822.681-10.037,6.209-29.486,8.606-30.281,19.827-45.055,25.102-50.302.922-.917,1.975-.972,1.925.529-.225,6.639-1.017,23.228-1.55,37.321-1.429,37.715,5.432,44.706,15.237,44.706,7.501,0,18.075-7.453,29.41-26.32,7.067-11.758,13.928-23.286,18.858-31.595,3.435,3.18,7.291,6.603,11.143,10.26,8.953,8.497,11.892,16.572,9.942,24.231-1.492,5.856-7.109,11.89-17.107,6.025-2.914-1.711-4.158-3.033-7.088-4.962-1.574-1.036-3.978-1.346-5.419-.26-3.743,2.822-5.884,6.412-7.107,10.857-1.189,4.325,3.142,6.611,7.632,8.61,3.866,1.721,12.175,3.281,17.474,3.458,20.647.691,37.186-9.969,48.7-37.465,2.061,23.746,10.833,37.184,26.072,37.184,10.189,0,20.404-13.17,24.871-26.126,1.282,5.281,3.181,9.874,5.632,13.757,11.743,18.606,34.524,14.601,45.967-1.198,3.538-4.882,4.077-6.636,4.077-6.636,1.669,14.918,13.683,20.131,20.561,20.131,7.704,0,15.658-3.642,21.233-16.193.653,1.362,1.366,2.663,2.145,3.896,11.743,18.606,34.524,14.601,45.967-1.198.54-.741,1.008-1.413,1.417-2.017l.336,9.799s-6.528,5.988-10.535,9.662c-17.637,16.181-31.047,28.457-32.034,42.753-1.266,18.229,13.517,25.003,24.702,25.891,11.878.943,22.049-5.619,28.301-14.801,5.499-8.082,9.098-25.478,8.834-42.658-.105-6.88-.279-15.628-.415-25.005,6.199-7.199,13.183-16.297,19.614-26.947,7.008-11.606,14.518-27.192,18.364-39.322,0,0,6.526.056,13.489-.4,2.228-.145,2.867.309,2.456,1.942-.497,1.973-8.798,33.991-1.222,55.32,5.186,14.601,16.875,19.299,23.806,19.299,8.113,0,15.874-6.127,20.034-15.225.501,1.014,1.025,1.996,1.597,2.902,11.743,18.606,34.444,14.577,45.967-1.198,2.601-3.559,4.076-6.636,4.076-6.636,2.473,15.44,14.48,20.209,21.357,20.209,7.164,0,13.963-2.937,19.479-15.989.231,5.747.593,10.446,1.166,11.927.349.906,2.385,2.043,3.866,2.593,6.553,2.43,13.237,1.281,15.71.781,1.713-.347,3.049-1.721,3.231-5.27.48-9.318.185-24.974,3.01-36.609,4.742-19.527,9.165-27.101,11.263-30.851,1.174-2.101,2.5-2.448,2.547-.224.099,4.499.323,17.711,2.16,35.463,1.349,13.055,3.151,20.772,4.536,23.214,3.953,6.984,8.834,7.315,12.81,7.315,2.529,0,7.817-.699,7.344-5.143-.231-2.166.173-15.554,4.848-34.792,3.053-12.563,8.142-23.914,9.978-28.064.677-1.53.992-.324.981-.089-.387,8.652-1.254,36.95,2.27,52.427,4.778,20.967,18.599,23.313,23.416,23.313,10.282,0,18.691-7.821,21.524-28.401.682-4.953-.328-8.777-3.355-8.777" stroke-width="0"/>
  <path d="M128,23.064c34.178,0,38.226.13,51.723.746,12.48.57,19.257,2.655,23.768,4.407,5.974,2.322,10.239,5.096,14.718,9.575s7.253,8.743,9.575,14.718c1.753,4.511,3.838,11.288,4.408,23.768.616,13.498.746,17.546.746,51.723s-.13,38.226-.746,51.723c-.57,12.48-2.655,19.257-4.408,23.768-2.321,5.974-5.096,10.239-9.575,14.718-4.479,4.479-8.743,7.253-14.718,9.575-4.511,1.753-11.288,3.838-23.768,4.408-13.495.616-17.543.746-51.723.746s-38.228-.13-51.723-.746c-12.48-.57-19.257-2.655-23.768-4.408-5.975-2.322-10.239-5.096-14.718-9.575-4.479-4.479-7.253-8.743-9.575-14.718-1.753-4.511-3.838-11.288-4.408-23.768-.616-13.498-.746-17.546-.746-51.723s.13-38.226.746-51.723c.57-12.48,2.655-19.257,4.408-23.768,2.321-5.974,5.096-10.239,9.575-14.718,4.479-4.479,8.743-7.253,14.718-9.575,4.51-1.752,11.288-3.838,23.767-4.407,13.498-.616,17.546-.746,51.723-.746M128,0c-34.763,0-39.121.147-52.774.77-13.625.622-22.929,2.785-31.071,5.95-8.417,3.271-15.555,7.648-22.671,14.764-7.116,7.116-11.493,14.254-14.764,22.671-3.164,8.142-5.328,17.447-5.95,31.071-.623,13.652-.77,18.011-.77,52.774s.147,39.122.77,52.774c.622,13.625,2.785,22.929,5.95,31.071,3.271,8.417,7.648,15.555,14.764,22.671,7.116,7.116,14.254,11.493,22.671,14.764,8.142,3.164,17.447,5.328,31.071,5.95,13.653.623,18.011.77,52.774.77s39.122-.147,52.774-.77c13.625-.622,22.929-2.785,31.071-5.95,8.417-3.271,15.555-7.648,22.671-14.764,7.116-7.116,11.493-14.254,14.764-22.671,3.164-8.142,5.328-17.447,5.95-31.071.623-13.652.77-18.011.77-52.774s-.147-39.122-.77-52.774c-.622-13.625-2.785-22.929-5.95-31.071-3.271-8.417-7.648-15.555-14.764-22.671-7.116-7.116-14.254-11.493-22.671-14.764-8.142-3.164-17.447-5.328-31.071-5.95-13.652-.623-18.011-.77-52.774-.77ZM128,62.27c-36.301,0-65.73,29.428-65.73,65.73s29.428,65.73,65.73,65.73,65.73-29.428,65.73-65.73-29.428-65.73-65.73-65.73ZM128,170.667c-23.564,0-42.667-19.103-42.667-42.667s19.103-42.667,42.667-42.667,42.667,19.103,42.667,42.667-19.103,42.667-42.667,42.667ZM211.686,59.673c0,8.483-6.877,15.36-15.36,15.36s-15.36-6.877-15.36-15.36,6.877-15.36,15.36-15.36,15.36,6.877,15.36,15.36Z" stroke-width="0"/>
</svg>